<svg width="50" height="50" viewBox="0 0 50 50" fill="none" xmlns="http://www.w3.org/2000/svg">
<circle cx="25" cy="25" r="25" fill="#062126" fill-opacity="0.1"/>
<path d="M32.945 20.9275C33.7583 20.35 34.4425 19.6292 35 18.7992V18.7983C34.2558 19.1242 33.4642 19.3408 32.6375 19.4458C33.4875 18.9383 34.1367 18.1408 34.4417 17.18C33.6492 17.6525 32.7742 17.9858 31.8417 18.1725C31.0892 17.3708 30.0167 16.875 28.8467 16.875C26.5767 16.875 24.7492 18.7175 24.7492 20.9758C24.7492 21.3008 24.7767 21.6133 24.8442 21.9108C21.4358 21.7442 18.4192 20.1108 16.3925 17.6217C16.0392 18.2358 15.8308 18.9383 15.8308 19.6942C15.8308 21.1142 16.5617 22.3725 17.6525 23.1017C16.9933 23.0892 16.3475 22.8975 15.8 22.5967V22.6417C15.8 24.6342 17.2208 26.2892 19.085 26.6708C18.7508 26.7625 18.3875 26.8058 18.01 26.8058C17.7475 26.8058 17.4825 26.7908 17.2342 26.7358C17.765 28.3592 19.2733 29.5533 21.065 29.5925C19.67 30.6833 17.8983 31.3408 15.9808 31.3408C15.645 31.3408 15.3225 31.3258 15 31.285C16.8167 32.4558 18.9683 33.125 21.29 33.125C28.5258 33.125 33.2417 27.0883 32.945 20.9275Z" fill="#062126" fill-opacity="0.7"/>
</svg>
