<svg width="50" height="50" viewBox="0 0 50 50" fill="none" xmlns="http://www.w3.org/2000/svg">
<circle cx="25" cy="25" r="25" fill="#062126" fill-opacity="0.1"/>
<g clip-path="url(#clip0_4323_1089)">
<path d="M34.9951 35.0001V34.9993H35.0001V27.6643C35.0001 24.0759 34.2276 21.3118 30.0326 21.3118C28.0159 21.3118 26.6626 22.4184 26.1101 23.4676H26.0517V21.6468H22.0742V34.9993H26.2159V28.3876C26.2159 26.6468 26.5459 24.9634 28.7017 24.9634C30.8259 24.9634 30.8576 26.9501 30.8576 28.4993V35.0001H34.9951Z" fill="#062126" fill-opacity="0.7"/>
<path d="M15.3301 21.6475H19.4768V35H15.3301V21.6475Z" fill="#062126" fill-opacity="0.7"/>
<path d="M17.4017 15C16.0758 15 15 16.0758 15 17.4017C15 18.7275 16.0758 19.8258 17.4017 19.8258C18.7275 19.8258 19.8033 18.7275 19.8033 17.4017C19.8025 16.0758 18.7267 15 17.4017 15V15Z" fill="#062126" fill-opacity="0.7"/>
</g>
<defs>
<clipPath id="clip0_4323_1089">
<rect width="20" height="20" fill="white" transform="translate(15 15)"/>
</clipPath>
</defs>
</svg>
